<svg xmlns="http://www.w3.org/2000/svg" viewBox="0 0 240 240" width="240" height="240" fill="none">
    <!-- Sector 1: Flank Maneuver (Top-Left: 0, 0) -->
    <g transform="translate(0, 0)">
        <path d="M 16 16 L 28 28 M 28 16 L 16 28" stroke="currentColor" stroke-width="1.2" stroke-linecap="round"/>
        <path d="M 85 80 L 85 92 M 79 86 L 91 86" stroke="currentColor" stroke-width="1.2" stroke-linecap="round"/>
        <path d="M 32 20 Q 60 12, 75 30" stroke="currentColor" stroke-width="1.2" stroke-dasharray="3 3"/>
        <path d="M 72 24 L 76 31 L 69 32" stroke="currentColor" stroke-width="1.2" stroke-linecap="round" stroke-linejoin="round"/>
        <circle cx="55" cy="65" r="4" stroke="currentColor" stroke-width="1.2"/>
        <path d="M 50 70 Q 30 85, 20 100" stroke="currentColor" stroke-width="1.2" stroke-dasharray="3 3"/>
        <path d="M 27 96 L 19 101 L 18 92" stroke="currentColor" stroke-width="1.2" stroke-linecap="round" stroke-linejoin="round"/>
        <path d="M 105 15 L 105 21 M 102 18 L 108 18" stroke="currentColor" stroke-width="1" stroke-linecap="round"/>
    </g>

    <!-- Sector 2: Double Pincer (Top-Right: 120, 0) -->
    <g transform="translate(120, 0)">
        <path d="M 60 52 L 60 68 M 52 60 L 68 60" stroke="currentColor" stroke-width="1.5" stroke-linecap="round"/>
        <circle cx="60" cy="60" r="14" stroke="currentColor" stroke-width="1" stroke-dasharray="2 3"/>
        <path d="M 18 25 Q 15 65, 42 63" stroke="currentColor" stroke-width="1.2" stroke-dasharray="3 3"/>
        <path d="M 37 57 L 44 63 L 38 69" stroke="currentColor" stroke-width="1.2" stroke-linecap="round" stroke-linejoin="round"/>
        <path d="M 102 25 Q 105 65, 78 63" stroke="currentColor" stroke-width="1.2" stroke-dasharray="3 3"/>
        <path d="M 83 69 L 76 63 L 82 57" stroke="currentColor" stroke-width="1.2" stroke-linecap="round" stroke-linejoin="round"/>
        <path d="M 25 100 L 35 110 M 35 100 L 25 110" stroke="currentColor" stroke-width="1.2" stroke-linecap="round"/>
        <path d="M 85 100 L 95 110 M 95 100 L 85 110" stroke="currentColor" stroke-width="1.2" stroke-linecap="round"/>
        <path d="M 60 108 L 60 84" stroke="currentColor" stroke-width="1.2" stroke-dasharray="3 3"/>
        <path d="M 55 89 L 60 82 L 65 89" stroke="currentColor" stroke-width="1.2" stroke-linecap="round" stroke-linejoin="round"/>
    </g>

    <!-- Sector 3: Infiltration S-Curve (Bottom-Left: 0, 120) -->
    <g transform="translate(0, 120)">
        <path d="M 5 60 L 115 60" stroke="currentColor" stroke-width="1" stroke-dasharray="4 6" opacity="0.4"/>
        <rect x="52" y="12" width="16" height="16" stroke="currentColor" stroke-width="1.2" rx="2"/>
        <path d="M 60 16 L 60 24 M 56 20 L 64 20" stroke="currentColor" stroke-width="1.2" stroke-linecap="round"/>
        <path d="M 18 108 C 25 78, 95 90, 85 55 C 78 28, 68 34, 60 30" stroke="currentColor" stroke-width="1.3" stroke-dasharray="3 3"/>
        <path d="M 66 33 L 60 28 L 57 36" stroke="currentColor" stroke-width="1.3" stroke-linecap="round" stroke-linejoin="round"/>
        <path d="M 45 78 L 53 86 M 53 78 L 45 86" stroke="currentColor" stroke-width="1.2" stroke-linecap="round"/>
        <path d="M 92 30 L 100 38 M 100 30 L 92 38" stroke="currentColor" stroke-width="1.2" stroke-linecap="round"/>
        <circle cx="85" cy="55" r="3" stroke="currentColor" stroke-width="1"/>
        <circle cx="18" cy="108" r="3" fill="currentColor" opacity="0.6"/>
    </g>

    <!-- Sector 4: Blitz Multi-Front (Bottom-Right: 120, 120) -->
    <g transform="translate(120, 120)">
        <path d="M 18 100 L 40 45" stroke="currentColor" stroke-width="1.2" stroke-dasharray="3 3"/>
        <path d="M 33 46 L 41 42 L 41 51" stroke="currentColor" stroke-width="1.2" stroke-linecap="round" stroke-linejoin="round"/>
        <path d="M 42 36 L 52 46 M 52 36 L 42 46" stroke="currentColor" stroke-width="1.3" stroke-linecap="round"/>
        <path d="M 55 95 Q 105 85, 90 35" stroke="currentColor" stroke-width="1.2" stroke-dasharray="3 3"/>
        <path d="M 85 41 L 89 33 L 95 38" stroke="currentColor" stroke-width="1.2" stroke-linecap="round" stroke-linejoin="round"/>
        <path d="M 82 22 L 92 32 M 92 22 L 82 32" stroke="currentColor" stroke-width="1.3" stroke-linecap="round"/>
        <circle cx="65" cy="18" r="8" stroke="currentColor" stroke-width="1" stroke-dasharray="2 2"/>
        <path d="M 65 6 L 65 30 M 53 18 L 77 18" stroke="currentColor" stroke-width="1" stroke-linecap="round"/>
        <circle cx="18" cy="102" r="3" fill="currentColor" opacity="0.6"/>
        <circle cx="95" cy="102" r="3" stroke="currentColor" stroke-width="1"/>
    </g>
</svg>
